<?xml version="1.0" encoding="UTF-8"?>
<svg version="1.1" xmlns="http://www.w3.org/2000/svg" width="50" height="50">
<path d="M0 0 C1.18154663 -0.00430527 1.18154663 -0.00430527 2.38696289 -0.00869751 C4.05127685 -0.01073772 5.71561481 -0.00521082 7.37988281 0.00732422 C9.92827947 0.02337941 12.47509021 0.00747506 15.0234375 -0.01171875 C16.6406285 -0.00973631 18.25781852 -0.00589261 19.875 0 C20.63756104 -0.00607269 21.40012207 -0.01214539 22.18579102 -0.0184021 C25.0223615 0.01933364 27.3674623 0.10434699 29.91650391 1.41943359 C31.57180068 4.62790697 31.36402164 7.93435243 31.3359375 11.4609375 C31.33880768 12.24863525 31.34167786 13.03633301 31.34463501 13.84790039 C31.34667522 15.51221435 31.34114832 17.17655231 31.32861328 18.84082031 C31.31255809 21.38921697 31.32846244 23.93602771 31.34765625 26.484375 C31.34567381 28.101566 31.34183011 29.71875602 31.3359375 31.3359375 C31.34504654 32.47977905 31.34504654 32.47977905 31.3543396 33.64672852 C31.31660386 36.483299 31.23159051 38.8283998 29.91650391 41.37744141 C26.70803053 43.03273818 23.40158507 42.82495914 19.875 42.796875 C18.69345337 42.80118027 18.69345337 42.80118027 17.48803711 42.80557251 C15.82372315 42.80761272 14.15938519 42.80208582 12.49511719 42.78955078 C9.94672053 42.77349559 7.39990979 42.78939994 4.8515625 42.80859375 C3.2343715 42.80661131 1.61718148 42.80276761 0 42.796875 C-1.14384155 42.80598404 -1.14384155 42.80598404 -2.31079102 42.8152771 C-5.1473615 42.77754136 -7.4924623 42.69252801 -10.04150391 41.37744141 C-11.69680068 38.16896803 -11.48902164 34.86252257 -11.4609375 31.3359375 C-11.46524277 30.15439087 -11.46524277 30.15439087 -11.46963501 28.94897461 C-11.47167522 27.28466065 -11.46614832 25.62032269 -11.45361328 23.95605469 C-11.43755809 21.40765803 -11.45346244 18.86084729 -11.47265625 16.3125 C-11.47067381 14.695309 -11.46683011 13.07811898 -11.4609375 11.4609375 C-11.46701019 10.69837646 -11.47308289 9.93581543 -11.4793396 9.15014648 C-11.44160386 6.313576 -11.35659051 3.9684752 -10.04150391 1.41943359 C-6.83303053 -0.23586318 -3.52658507 -0.02808414 0 0 Z M-8.0625 4.3984375 C-9.86841979 9.81619688 -9.24717264 15.66707278 -9.25 21.3359375 C-9.26224609 22.62435547 -9.27449219 23.91277344 -9.28710938 25.24023438 C-9.28904297 26.47708984 -9.29097656 27.71394531 -9.29296875 28.98828125 C-9.29707764 30.12128662 -9.30118652 31.25429199 -9.30541992 32.42163086 C-9.06658823 35.3483392 -8.74710275 37.01194616 -7.0625 39.3984375 C-1.64474062 41.20435729 4.20613528 40.58311014 9.875 40.5859375 C11.80762695 40.60430664 11.80762695 40.60430664 13.77929688 40.62304688 C15.01615234 40.62498047 16.25300781 40.62691406 17.52734375 40.62890625 C18.66034912 40.63301514 19.79335449 40.63712402 20.96069336 40.64135742 C23.8874017 40.40252573 25.55100866 40.08304025 27.9375 38.3984375 C29.74341979 32.98067812 29.12217264 27.12980222 29.125 21.4609375 C29.13724609 20.17251953 29.14949219 18.88410156 29.16210938 17.55664062 C29.16404297 16.31978516 29.16597656 15.08292969 29.16796875 13.80859375 C29.17207764 12.67558838 29.17618652 11.54258301 29.18041992 10.37524414 C28.94158823 7.4485358 28.62210275 5.78492884 26.9375 3.3984375 C21.51974062 1.59251771 15.66886472 2.21376486 10 2.2109375 C8.06737305 2.19256836 8.06737305 2.19256836 6.09570312 2.17382812 C4.85884766 2.17189453 3.62199219 2.16996094 2.34765625 2.16796875 C1.21465088 2.16385986 0.08164551 2.15975098 -1.08569336 2.15551758 C-4.0124017 2.39434927 -5.67600866 2.71383475 -8.0625 4.3984375 Z " fill="#FFFFFF" transform="translate(15.0625,3.6015625)"/>
<path d="M0 0 C0.66 0.33 1.32 0.66 2 1 C0.60119022 5.22667388 -1.39943995 7.83487298 -4.4375 11.0625 C-7.13480055 13.9464342 -9.69512363 16.79095991 -12 20 C-15.15835107 18.60249952 -17.32272825 16.94801766 -19.75 14.5 C-20.67039062 13.58734375 -20.67039062 13.58734375 -21.609375 12.65625 C-23 11 -23 11 -23 9 C-19.11086736 9.5761678 -16.98945016 11.56123803 -14 14 C-13.34 14 -12.68 14 -12 14 C-10.46148234 12.28048026 -8.99268241 10.49812503 -7.5625 8.6875 C-2.65103889 2.49760256 -2.65103889 2.49760256 0 0 Z " fill="#FFFFFF" transform="translate(36,15)"/>
</svg>
